<?xml version="1.0" encoding="UTF-8"?>
<svg id="Capa_1" xmlns="http://www.w3.org/2000/svg" version="1.1" viewBox="0 0 262.1 50.2">
  <!-- Generator: Adobe Illustrator 29.1.0, SVG Export Plug-In . SVG Version: 2.1.0 Build 142)  -->
  <defs>
    <style>
      .st0 {
        fill: #595959;
      }
    </style>
  </defs>
  <path class="st0" d="M0,18.4C0,8.9,6.9,2,16.8,2s14.7,5.1,16.2,12.5h-7.6c-1.3-3.4-4.5-5.5-8.6-5.5s-9.2,3.9-9.2,9.4,3.7,9.4,9.2,9.4,7.3-2.1,8.6-5.5h7.6c-1.5,7.4-7.7,12.5-16.2,12.5-9.9,0-16.8-6.9-16.8-16.4Z"/>
  <path class="st0" d="M36.6,18.7c0-9.9,7-16.7,16.9-16.7s16.6,6.6,16.6,16.7v15.3h-6.9v-6.1c-1.9,4.6-6.1,7-11.1,7-7.6,0-15.5-5.4-15.5-16.1ZM62.6,18.4c0-5.5-3.7-9.4-9.2-9.4s-9.2,3.9-9.2,9.4,3.7,9.4,9.2,9.4,9.2-3.9,9.2-9.4Z"/>
  <path class="st0" d="M76.3,15.9c0-9.4,5.6-13.9,13.7-13.9s13.7,4.5,13.7,14v.2h-7.5v-.3c0-5.1-2.5-6.9-6.2-6.9s-6.2,1.8-6.2,6.9v18.1h-7.5V15.9Z"/>
  <path class="st0" d="M107.5,37.4h7.6c1.3,2.9,4.3,4.2,8.3,4.2s9-2.6,9-9.9v-2.7c-2.1,3.5-5.9,5.4-10.6,5.4-7.5,0-15.4-5-15.4-16S113.4,2,123.3,2s16.7,6.6,16.7,16.7v12.9c0,11.9-7.4,16.6-16.6,16.6s-13.9-3.3-15.9-10.7h0ZM132.4,18.4c0-5.5-3.7-9.4-9.2-9.4s-9.2,3.9-9.2,9.4,3.7,9,9.2,9,9.2-3.5,9.2-9Z"/>
  <path class="st0" d="M146.1,29.9c0-2.8,2.1-5,5-5s5,2.1,5,5-2.1,5-5,5-5-2.2-5-5Z"/>
  <path class="st0" d="M160.1,18.4c0-9.5,6.9-16.4,16.8-16.4s16.8,6.9,16.8,16.4-6.9,16.4-16.8,16.4-16.8-7-16.8-16.4ZM186.1,18.4c0-5.5-3.7-9.4-9.2-9.4s-9.2,3.9-9.2,9.4,3.7,9.4,9.2,9.4,9.2-3.9,9.2-9.4Z"/>
  <path class="st0" d="M198.6,18.7c0-10.1,6.8-16.7,16.6-16.7s16.9,6.8,16.9,16.7-8,16.1-15.5,16.1-8.2-1.9-10.4-5.4v17.9h-7.5v-28.7h0ZM224.5,18.4c0-5.5-3.7-9.4-9.2-9.4s-9.2,3.9-9.2,9.4,3.7,9.4,9.2,9.4,9.2-3.9,9.2-9.4Z"/>
  <path class="st0" d="M235.8,24.8h7.6c0,2.1,1.9,3.5,5.6,3.5s5.5-1.6,5.5-3.5-2.8-2.7-6.1-3.2c-4.8-.6-11.9-1.5-11.9-9.1s4.9-10.6,12.4-10.6,12.3,4.3,12.5,9.8h-7.5c-.2-1.9-2-3.2-4.9-3.2s-4.9,1.6-4.9,3.4,2.8,2.8,6.2,3.2c4.2.6,11.8,1.4,11.8,9.2s-5.1,10.5-13.1,10.5-12.9-4.2-13.1-10h0Z"/>
</svg>