<?xml version="1.0" encoding="UTF-8"?>
<svg id="Capa_1" data-name="Capa 1" xmlns="http://www.w3.org/2000/svg" viewBox="0 0 262.06 50.18">
  <path d="M0,18.42C0,8.95,6.95,2,16.81,2c8.47,0,14.66,5.12,16.18,12.51h-7.58c-1.33-3.35-4.49-5.5-8.59-5.5-5.5,0-9.22,3.92-9.22,9.41s3.73,9.41,9.22,9.41c4.11,0,7.27-2.15,8.59-5.5h7.58c-1.52,7.39-7.71,12.51-16.18,12.51C6.95,34.85,0,27.9,0,18.42Z"/>
  <path d="M36.64,18.74c0-9.92,6.95-16.74,16.87-16.74s16.62,6.63,16.62,16.68v15.35h-6.89v-6.13c-1.9,4.61-6.13,6.95-11.06,6.95-7.58,0-15.54-5.43-15.54-16.11ZM62.61,18.42c0-5.5-3.67-9.41-9.16-9.41s-9.22,3.92-9.22,9.41,3.73,9.41,9.22,9.41,9.16-3.92,9.16-9.41Z"/>
  <path d="M76.32,15.9c0-9.41,5.56-13.9,13.71-13.9s13.65,4.49,13.65,14.03v.19h-7.46v-.32c0-5.06-2.53-6.89-6.19-6.89s-6.19,1.83-6.19,6.89v18.13h-7.52V15.9Z"/>
  <path d="M107.53,37.44h7.58c1.26,2.91,4.3,4.23,8.28,4.23,5.56,0,9.04-2.59,9.04-9.86v-2.72c-2.15,3.48-5.88,5.37-10.55,5.37-7.46,0-15.42-4.99-15.42-16.05,0-9.48,6.95-16.43,16.81-16.43s16.68,6.57,16.68,16.68v12.89c0,11.94-7.39,16.62-16.55,16.62-7.77,0-13.9-3.35-15.86-10.74ZM132.42,18.42c0-5.5-3.67-9.41-9.16-9.41s-9.22,3.92-9.22,9.41,3.73,9.04,9.22,9.04,9.16-3.54,9.16-9.04Z"/>
  <path d="M146.13,29.86c0-2.84,2.15-4.99,4.99-4.99s4.99,2.15,4.99,4.99-2.15,4.99-4.99,4.99-4.99-2.15-4.99-4.99Z"/>
  <path d="M160.09,18.42c0-9.48,6.95-16.43,16.81-16.43s16.81,6.95,16.81,16.43-6.95,16.43-16.81,16.43-16.81-6.95-16.81-16.43ZM186.06,18.42c0-5.5-3.67-9.41-9.16-9.41s-9.22,3.92-9.22,9.41,3.73,9.41,9.22,9.41,9.16-3.92,9.16-9.41Z"/>
  <path d="M198.63,18.68c0-10.11,6.82-16.68,16.62-16.68s16.87,6.82,16.87,16.74c0,10.68-7.96,16.11-15.54,16.11-4.49,0-8.21-1.9-10.43-5.37v17.88h-7.52v-28.69ZM224.54,18.42c0-5.5-3.73-9.41-9.22-9.41s-9.16,3.92-9.16,9.41,3.67,9.41,9.16,9.41,9.22-3.92,9.22-9.41Z"/>
  <path d="M235.84,24.8h7.58c.06,2.09,1.9,3.48,5.56,3.48,3.85,0,5.5-1.58,5.5-3.48,0-2.4-2.78-2.72-6.13-3.16-4.8-.63-11.88-1.45-11.88-9.1,0-6.38,4.87-10.55,12.38-10.55s12.32,4.3,12.51,9.79h-7.46c-.19-1.9-1.96-3.22-4.93-3.22-3.29,0-4.93,1.58-4.93,3.41,0,2.4,2.84,2.78,6.19,3.22,4.17.57,11.82,1.39,11.82,9.16,0,6.32-5.12,10.49-13.08,10.49s-12.95-4.23-13.14-10.05Z"/>
</svg>