<?xml version="1.0" encoding="UTF-8"?>
<svg id="Capa_1" data-name="Capa 1" xmlns="http://www.w3.org/2000/svg" viewBox="0 0 262.06 54.85">
  <path d="M99.15,20.48c-1.6.53-4.54,1.19-7.3,1.19-4.13,0-6.95-1.03-8.86-2.85-1.97-1.88-3.01-4.6-3.01-7.61.03-7.36,5.51-11.09,12.34-11.09,2.85,0,5.01.5,6.11,1.03l-1.13,4.54c-1.19-.53-2.63-.91-5.01-.91-3.48,0-6.36,1.82-6.36,6.11,0,3.95,2.54,6.23,5.98,6.23.78,0,1.5-.06,1.78-.19v-3.63h-2.82v-4.38h8.27v11.55Z"/>
  <path d="M102.69.66c1.6-.25,4.01-.47,6.83-.47,3.23,0,5.54.44,7.14,1.66,1.35,1.03,2.07,2.54,2.07,4.57,0,2.63-1.97,4.48-3.6,5.1v.09c1.38.63,2.16,1.97,2.69,3.79.63,2.16,1.32,5.23,1.72,6.04h-5.76c-.31-.63-.88-2.25-1.47-4.89-.56-2.5-1.35-3.04-3.1-3.04h-.91v7.92h-5.61V.66ZM108.29,9.46h1.47c2.13,0,3.35-1.03,3.35-2.6s-1.03-2.47-2.91-2.47c-1.06,0-1.63.06-1.91.13v4.95Z"/>
  <path d="M127.42.34v11.99c0,3.19,1.1,4.98,3.32,4.98s3.35-1.63,3.35-4.98V.34h5.67v11.65c0,6.51-3.26,9.8-9.17,9.8s-8.83-3.16-8.83-9.93V.34h5.67Z"/>
  <path d="M143.61.66c1.53-.25,3.76-.47,6.95-.47s5.23.56,6.7,1.69c1.44,1.06,2.41,2.91,2.41,5.07s-.72,3.98-2.07,5.2c-1.69,1.5-4.16,2.19-7.01,2.19-.56,0-1.03-.06-1.38-.06v7.17h-5.61V.66ZM149.22,9.96c.31.03.69.06,1.28.06,2.19,0,3.57-1.13,3.57-2.94,0-1.57-1.03-2.63-3.19-2.63-.81,0-1.38.06-1.66.13v5.39Z"/>
  <path d="M171.73,21.79c-6.54,0-10.15-4.92-10.15-10.77s4.01-11.02,10.49-11.02,10.24,5.04,10.24,10.68c0,6.79-4.07,11.12-10.55,11.12h-.03ZM172.01,17.32c2.72,0,4.32-2.63,4.32-6.45s-1.63-6.39-4.38-6.39-4.38,2.76-4.38,6.42c-.03,3.79,1.66,6.42,4.38,6.42h.06Z"/>
  <path d="M5.82,34.34H0v-5.85h17.88v5.85h-5.93v20.08h-6.13v-20.08Z"/>
  <path d="M20.41,28.88c1.73-.31,4.33-.58,7.38-.58,3.49,0,5.99.54,7.72,2.04,1.46,1.27,2.23,3.12,2.23,5.62,0,3.23-2.13,5.5-3.89,6.27v.12c1.49.77,2.34,2.42,2.91,4.66.68,2.66,1.42,6.43,1.86,7.43h-6.23c-.34-.77-.95-2.77-1.59-6-.61-3.08-1.46-3.73-3.35-3.73h-.98v9.73h-6.06v-25.55ZM26.48,39.69h1.59c2.3,0,3.62-1.27,3.62-3.19s-1.12-3.04-3.15-3.04c-1.15,0-1.76.08-2.07.15v6.08Z"/>
  <path d="M47.36,48.42l-1.29,6h-6.33l6.64-25.93h8.13l6.81,25.93h-6.6l-1.46-6h-5.89ZM52.41,43.3l-1.05-4.66c-.34-1.46-.78-3.58-1.12-5.12h-.07c-.34,1.54-.68,3.65-1.02,5.12l-.98,4.66h4.23Z"/>
  <path d="M63.95,54.42v-25.93h7.21l3.62,7.96c1.25,2.58,2.57,6.04,3.59,9.08h.1c-.34-3.42-.47-7.04-.47-10.89v-6.16h5.59v25.93h-6.43l-3.89-8.62c-1.25-2.73-2.74-6.23-3.83-9.35h-.14c.17,3.5.24,7.39.24,11.58v6.39h-5.59Z"/>
  <path d="M87.95,47.5c1.39.81,3.62,1.62,5.93,1.62,2.1,0,3.12-.81,3.12-2.12s-1.02-1.96-3.59-2.96c-3.86-1.58-6.43-3.96-6.43-7.81,0-4.58,3.42-8.12,9.18-8.12,2.71,0,4.67.58,6.16,1.31l-1.29,5.58c-.98-.5-2.67-1.23-4.94-1.23-1.86,0-2.88.77-2.88,1.92,0,1.31,1.22,1.81,4.1,3.04,4.1,1.73,5.93,4.19,5.93,7.81,0,4.46-3.05,8.27-9.72,8.27-2.74,0-5.42-.81-6.7-1.58l1.15-5.73Z"/>
  <path d="M123.33,53.73c-.85.5-3.01,1.08-5.72,1.08-8.53,0-12.29-6.04-12.29-12.93,0-9.12,5.89-13.77,12.7-13.77,2.61,0,4.74.58,5.69,1.12l-1.19,5.5c-.98-.46-2.4-.92-4.23-.92-3.49,0-6.54,2.35-6.54,7.62,0,4.69,2.47,7.62,6.67,7.62,1.46,0,3.12-.31,4.06-.73l.85,5.42Z"/>
  <path d="M132.51,28.49v25.93h-6.13v-25.93h6.13Z"/>
  <path d="M136.43,54.42v-25.93h7.21l3.62,7.96c1.25,2.58,2.57,6.04,3.59,9.08h.1c-.34-3.42-.47-7.04-.47-10.89v-6.16h5.59v25.93h-6.43l-3.89-8.62c-1.25-2.73-2.74-6.23-3.83-9.35h-.14c.17,3.5.24,7.39.24,11.58v6.39h-5.59Z"/>
  <path d="M177.09,53.73c-.85.5-3.01,1.08-5.72,1.08-8.53,0-12.29-6.04-12.29-12.93,0-9.12,5.89-13.77,12.7-13.77,2.61,0,4.74.58,5.69,1.12l-1.19,5.5c-.98-.46-2.4-.92-4.23-.92-3.49,0-6.54,2.35-6.54,7.62,0,4.69,2.47,7.62,6.67,7.62,1.46,0,3.12-.31,4.06-.73l.85,5.42Z"/>
  <path d="M189.04,54.85c-7.08,0-10.97-6.04-10.97-13.24s4.33-13.54,11.34-13.54,11.07,6.19,11.07,13.12c0,8.35-4.4,13.66-11.41,13.66h-.03ZM189.35,49.35c2.95,0,4.67-3.23,4.67-7.93s-1.76-7.85-4.74-7.85-4.74,3.39-4.74,7.89c-.03,4.66,1.79,7.89,4.74,7.89h.07Z"/>
  <path d="M210.3,47.5c1.39.81,3.62,1.62,5.93,1.62,2.1,0,3.12-.81,3.12-2.12s-1.02-1.96-3.59-2.96c-3.86-1.58-6.43-3.96-6.43-7.81,0-4.58,3.42-8.12,9.18-8.12,2.71,0,4.67.58,6.16,1.31l-1.29,5.58c-.98-.5-2.67-1.23-4.94-1.23-1.86,0-2.88.77-2.88,1.92,0,1.31,1.22,1.81,4.1,3.04,4.1,1.73,5.93,4.19,5.93,7.81,0,4.46-3.05,8.27-9.72,8.27-2.74,0-5.42-.81-6.7-1.58l1.15-5.73Z"/>
  <path d="M231.63,54.85c-2.03,0-3.45-1.65-3.45-4.04s1.46-4.04,3.49-4.04,3.45,1.62,3.49,4.04c0,2.39-1.39,4.04-3.49,4.04h-.03Z"/>
  <path d="M237.92,28.49h6.13v20.12h8.77v5.81h-14.9v-25.93Z"/>
  <path d="M258.54,54.85c-2.03,0-3.45-1.65-3.45-4.04s1.46-4.04,3.49-4.04,3.45,1.62,3.49,4.04c0,2.39-1.39,4.04-3.49,4.04h-.03Z"/>
</svg>