<?xml version="1.0" encoding="UTF-8"?>
<svg id="Capa_1" data-name="Capa 1" xmlns="http://www.w3.org/2000/svg" viewBox="0 0 262.06 86.95">
  <path d="M82.34,41.3v-16.95c0-7.79-4.03-12.27-14.03-12.27s-14.09,5.13-14.35,10.97h7.86c.26-3.18,2.27-4.67,6.43-4.67,3.7,0,5.59,1.56,5.59,3.96,0,2.53-2.53,2.99-8.05,3.77-7.4,1.04-13.38,3.38-13.38,10.71,0,6.62,4.8,10.2,11.62,10.2,5.71,0,8.12-1.95,9.81-4.48h.13c.19,1.49.52,3.05,1.04,3.7h8.51v-.33c-.78-.58-1.17-2.08-1.17-4.61ZM74.03,34.48c0,3.25-2.79,6.36-7.86,6.36-3.12,0-5.19-1.1-5.19-4.22s2.27-4.16,6.88-5.19c2.21-.52,4.61-1.04,6.17-1.95v5Z"/>
  <path d="M96.62,18.25h-.19v-5.32h-8.51v33.31h8.83v-16.23c0-7.01,4.16-10.06,9.93-9.48h.2v-7.73c-.52-.19-1.1-.26-2.08-.26-3.9,0-6.17,1.95-8.18,5.71Z"/>
  <path d="M125,40.13c-5.39,0-7.92-4.22-7.92-10.52s2.73-10.52,8.05-10.52c3.25,0,5.52,2.21,6.1,5.13h8.64c-1.17-7.21-6.49-12.21-15.13-12.21-10.13,0-16.62,7.66-16.62,17.6s6.56,17.6,17.08,17.6c8.9,0,14.42-5.65,15-12.73h-8.51c-.58,3.77-3.12,5.65-6.69,5.65Z"/>
  <path d="M158.83,12.02c-9.74,0-16.43,7.66-16.43,17.53s6.23,17.66,17.27,17.66c8.57,0,13.83-5,15.07-10.91h-8.7c-.98,2.53-2.99,4.09-6.43,4.09-5,0-7.86-3.18-8.51-8.31h24.16c0-11.88-5.71-20.07-16.43-20.07ZM151.23,25.98c.78-4.35,3.05-7.14,7.73-7.14,4.03,0,6.82,2.92,7.08,7.14h-14.81Z"/>
  <rect x="179.47" y="-.19" width="8.83" height="46.43"/>
  <path d="M209.92,12.02c-10.33,0-17.4,7.66-17.4,17.6s7.08,17.6,17.4,17.6,17.4-7.66,17.4-17.6-7.08-17.6-17.4-17.6ZM209.92,40.46c-5.45,0-8.44-4.35-8.44-10.84s2.99-10.91,8.44-10.91,8.44,4.42,8.44,10.91-3.05,10.84-8.44,10.84Z"/>
  <path d="M253.56,12.93v3.51h-.13c-2.01-2.79-5.07-4.42-9.22-4.42-8.44,0-14.42,6.36-14.42,16.3s7.27,15.91,14.67,15.91c4.22,0,6.75-1.69,8.7-3.9h.19v3.64c0,4.55-2.4,6.95-7.4,6.95-4.09,0-5.97-1.62-6.69-3.7h-8.77c.91,6.49,6.49,10.39,15.59,10.39,4.94,0,9.22-1.17,12.01-3.77,2.47-2.27,3.96-5.45,3.96-10.13V12.93h-8.51ZM245.96,37.15c-4.55,0-7.53-3.31-7.53-8.96s2.99-9.09,7.47-9.09c5.32,0,7.92,4.16,7.92,9.03s-2.27,9.03-7.86,9.03Z"/>
  <path d="M13.49,50.3c6.1,14.87,16.83,27.92,18.97,26.7,2.54-1.45-9.58-21.72-3.06-27.75,2.9-2.68,6.63.1,11.42-3.21,6.61-4.56,6.4-14.62,6.37-15.7-.06-1.8-.28-9.04-6.15-14.06-3.08-2.64-7.16-4.2-11.91-4.2s-8.83,1.56-11.91,4.2c-2.16,1.85-3.31,3.75-3.98,4.89-3.17,5.39-3.15,10.78-3.09,14.06.1,6.3,1.79,11.27,3.35,15.07ZM29.13,21.36c4.96,0,8.99,4.02,8.99,8.99s-4.02,8.99-8.99,8.99-8.99-4.02-8.99-8.99,4.02-8.99,8.99-8.99Z"/>
  <path d="M39.95,67.09l-.64,4.51c10.15,1.43,13.47,4.3,13.47,5.13,0,1.75-8.2,5.85-24.11,5.85s-24.11-4.1-24.11-5.85c0-.83,3.32-3.7,13.47-5.13l-.64-4.51c-5.23.74-17.39,3.16-17.39,9.65,0,7.15,14.86,10.41,28.67,10.41s28.67-3.26,28.67-10.41c0-6.49-12.16-8.91-17.39-9.65Z"/>
</svg>