<?xml version="1.0" encoding="UTF-8"?>
<svg id="Capa_1" data-name="Capa 1" xmlns="http://www.w3.org/2000/svg" viewBox="0 0 262.06 42.4">
  <path d="M32.23,23.51L38.25.6h6.86l-8.9,30.07h-7.7l-5.83-22.07-5.71,22.07h-7.76L0,.6h7.04l6.25,23.03L18.94.6h7.34l5.95,22.91Z"/>
  <path d="M53.58,30.13c-1.5-.72-2.65-1.74-3.55-3.13-.9-1.32-1.32-2.83-1.32-4.57,0-2.23.54-4.03,1.62-5.41,1.02-1.38,2.41-2.41,4.09-3.07,1.68-.66,3.43-1.08,5.29-1.2l7.88-.66v-.84c0-1.68-.48-3.07-1.44-4.09-1.02-1.02-2.35-1.5-4.03-1.5h-.48c-1.5,0-2.71.36-3.73,1.14-1.02.78-1.56,1.74-1.68,2.89h-6.92c.18-1.86.78-3.55,1.86-4.99,1.08-1.44,2.53-2.59,4.39-3.43S59.53,0,61.88,0C65.79,0,68.79,1.02,71.02,3.01c2.23,2.04,3.31,4.75,3.31,8.06v12.99c0,.9,0,1.92.06,3.19,0,1.26.06,2.41.24,3.43h-6.5c-.12-.54-.18-1.26-.24-2.16s-.06-1.56-.06-1.98c-.78,1.32-1.92,2.47-3.55,3.37s-3.55,1.38-5.71,1.38c-1.86,0-3.49-.36-4.99-1.14ZM60.25,25.62c1.2,0,2.35-.3,3.49-.9,1.14-.54,2.04-1.32,2.77-2.35.72-1.02,1.08-2.1,1.08-3.37v-1.8l-6.98.66c-1.26.12-2.47.54-3.49,1.2-1.02.66-1.56,1.68-1.56,2.95,0,1.02.42,1.93,1.2,2.59.78.66,1.8,1.02,3.01,1.02h.48Z"/>
  <path d="M89.42,30.67h-6.92V.6h6.8v6.25c.6-2.11,1.68-3.73,3.25-4.87,1.56-1.14,3.37-1.68,5.47-1.68h2.04v6.5h-2.59c-2.59,0-4.57.72-5.95,2.16s-2.1,3.55-2.1,6.25v15.46Z"/>
  <path d="M111.13,29.47c-2.23-1.2-3.97-2.95-5.29-5.29-1.32-2.35-1.98-5.17-1.98-8.54,0-3.19.6-6.01,1.86-8.36,1.2-2.35,2.89-4.15,4.99-5.41C112.81.6,115.28,0,117.98,0s5.29.6,7.28,1.86c1.98,1.26,3.49,2.95,4.51,5.11,1.02,2.16,1.56,4.63,1.56,7.4v1.5c-.06.54-.06,1.02-.12,1.56h-20.63c.12,1.74.54,3.25,1.32,4.45.78,1.26,1.68,2.16,2.83,2.77,1.14.66,2.23.96,3.37.96h.48c1.5,0,2.77-.42,3.79-1.2,1.02-.78,1.68-1.74,1.98-3.01h6.86c-.66,3.01-2.1,5.41-4.45,7.16-2.35,1.8-5.23,2.71-8.66,2.71-2.47,0-4.81-.6-6.98-1.8ZM124.54,12.09c-.12-2.17-.78-3.79-2.04-4.87-1.26-1.02-2.77-1.56-4.39-1.56h-.48c-1.62,0-3.07.54-4.39,1.56-1.38,1.02-2.16,2.65-2.47,4.87h13.77Z"/>
  <path d="M139.39,28.45c-2.23-1.86-3.37-4.33-3.37-7.46h7.04c.06,1.56.66,2.77,1.74,3.55,1.02.84,2.35,1.26,3.97,1.26h.48c1.38,0,2.53-.3,3.43-.96.9-.6,1.32-1.38,1.32-2.41,0-.9-.24-1.62-.78-2.16s-1.5-.9-2.77-1.2l-4.15-.9c-2.83-.66-4.99-1.74-6.62-3.13s-2.47-3.31-2.47-5.77c0-1.86.54-3.55,1.56-4.93,1.02-1.38,2.41-2.41,4.15-3.19C144.68.36,146.73,0,149.01,0,152.92,0,155.93.9,158.03,2.77c2.1,1.86,3.13,4.27,3.13,7.34h-6.92c-.18-1.32-.66-2.41-1.44-3.31-.78-.9-2.04-1.32-3.67-1.32h-.48c-1.32,0-2.41.3-3.25.9-.9.6-1.32,1.44-1.32,2.47,0,.9.36,1.56,1.02,2.11.66.54,1.68.96,3.07,1.26l4.33,1.02c2.59.6,4.63,1.62,6.13,3.01,1.5,1.38,2.23,3.37,2.23,5.89s-1.08,4.75-3.19,6.49c-2.11,1.74-5.11,2.65-8.9,2.65-4.03,0-7.16-.96-9.38-2.83Z"/>
  <path d="M189.18.6h7.52l-12.63,28.27v6.31c0,4.81-2.41,7.22-7.16,7.22h-10.52v-6.07h8.18c1.14,0,1.92-.18,2.35-.6.42-.42.6-1.14.6-2.29v-4.27L164.59.6h7.64l8.6,19.97L189.18.6Z"/>
  <path d="M208.24,30.67h-6.92V.6h6.92v4.33c.9-1.44,2.16-2.65,3.79-3.55C213.6.48,215.46,0,217.56,0,221.11,0,223.82,1.02,225.56,3.07c1.74,2.11,2.65,4.75,2.65,8v19.61h-6.92V12.09c0-1.98-.42-3.61-1.32-4.75s-2.29-1.68-4.03-1.68h-.48c-1.26,0-2.47.36-3.55,1.02-1.14.72-1.98,1.68-2.65,2.89-.66,1.26-1.02,2.71-1.02,4.33v16.78Z"/>
  <path d="M241.5,29.29c-2.16-1.32-3.85-3.19-5.05-5.53-1.2-2.35-1.8-5.05-1.8-8.12s.6-5.83,1.8-8.18c1.2-2.35,2.89-4.15,5.05-5.47C243.66.66,246.19,0,249.07,0,252.74,0,255.81.9,258.15,2.77c2.35,1.86,3.61,4.57,3.91,8.12h-6.92c-.24-1.56-.84-2.83-1.86-3.79-1.02-.96-2.35-1.44-3.97-1.44h-.48c-1.68,0-3.07.48-4.15,1.38s-1.86,2.1-2.35,3.61c-.54,1.5-.78,3.19-.78,4.99s.24,3.43.78,4.93c.48,1.5,1.26,2.77,2.35,3.67,1.08.9,2.47,1.38,4.15,1.38h.48c1.62,0,2.95-.48,3.97-1.44,1.02-.96,1.62-2.23,1.86-3.79h6.92c-.3,3.55-1.56,6.19-3.91,8.06-2.35,1.86-5.41,2.83-9.08,2.83-2.89,0-5.41-.66-7.58-1.98Z"/>
</svg>